<mxfile host="app.diagrams.net" modified="2020-09-11T11:40:09.637Z" agent="5.0 (Windows)" etag="QJ5pNmy0NVNiKuXPDOlJ" version="13.6.9" type="github">
  <diagram id="VmHdKOCHIBxl1oifBbPt" name="Page-1">
    <mxGraphModel dx="910" dy="487" grid="1" gridSize="10" guides="1" tooltips="1" connect="1" arrows="1" fold="1" page="1" pageScale="1" pageWidth="1169" pageHeight="827" math="0" shadow="0">
      <root>
        <mxCell id="0" />
        <mxCell id="1" parent="0" />
        <mxCell id="lYT4x0qV3o0OyzlUkW0a-1" value="Pensions - Controller of Budget" style="swimlane;" parent="1" vertex="1">
          <mxGeometry x="50" y="30" width="1070" height="540" as="geometry" />
        </mxCell>
        <mxCell id="lYT4x0qV3o0OyzlUkW0a-2" value="Start" style="rounded=1;whiteSpace=wrap;html=1;fontSize=10;" parent="lYT4x0qV3o0OyzlUkW0a-1" vertex="1">
          <mxGeometry x="180" y="50" width="120" height="60" as="geometry" />
        </mxCell>
        <mxCell id="lYT4x0qV3o0OyzlUkW0a-3" value="Controller of verifies, validates" style="rounded=0;whiteSpace=wrap;html=1;fontSize=10;" parent="lYT4x0qV3o0OyzlUkW0a-1" vertex="1">
          <mxGeometry x="180" y="180" width="120" height="60" as="geometry" />
        </mxCell>
        <mxCell id="lYT4x0qV3o0OyzlUkW0a-5" value="" style="edgeStyle=orthogonalEdgeStyle;rounded=0;orthogonalLoop=1;jettySize=auto;html=1;entryX=0.5;entryY=0;entryDx=0;entryDy=0;" parent="lYT4x0qV3o0OyzlUkW0a-1" source="lYT4x0qV3o0OyzlUkW0a-2" target="lYT4x0qV3o0OyzlUkW0a-3" edge="1">
          <mxGeometry relative="1" as="geometry">
            <mxPoint x="240" y="190" as="targetPoint" />
          </mxGeometry>
        </mxCell>
        <mxCell id="lYT4x0qV3o0OyzlUkW0a-12" value="End" style="rounded=1;whiteSpace=wrap;html=1;fontSize=10;" parent="lYT4x0qV3o0OyzlUkW0a-1" vertex="1">
          <mxGeometry x="780" y="430" width="120" height="60" as="geometry" />
        </mxCell>
        <mxCell id="lYT4x0qV3o0OyzlUkW0a-6" value="Controller of budget sends back to director" style="whiteSpace=wrap;html=1;rounded=0;fontSize=10;" parent="lYT4x0qV3o0OyzlUkW0a-1" vertex="1">
          <mxGeometry x="180" y="430" width="120" height="60" as="geometry" />
        </mxCell>
        <mxCell id="lYT4x0qV3o0OyzlUkW0a-8" value="Director receives and sends to accounts to pay" style="whiteSpace=wrap;html=1;rounded=0;fontSize=10;" parent="lYT4x0qV3o0OyzlUkW0a-1" vertex="1">
          <mxGeometry x="380" y="430" width="120" height="60" as="geometry" />
        </mxCell>
        <mxCell id="lYT4x0qV3o0OyzlUkW0a-9" value="" style="edgeStyle=orthogonalEdgeStyle;rounded=0;orthogonalLoop=1;jettySize=auto;html=1;" parent="lYT4x0qV3o0OyzlUkW0a-1" source="lYT4x0qV3o0OyzlUkW0a-6" target="lYT4x0qV3o0OyzlUkW0a-8" edge="1">
          <mxGeometry relative="1" as="geometry" />
        </mxCell>
        <mxCell id="lYT4x0qV3o0OyzlUkW0a-14" value="" style="edgeStyle=orthogonalEdgeStyle;rounded=0;orthogonalLoop=1;jettySize=auto;html=1;fontSize=10;entryX=0;entryY=0.5;entryDx=0;entryDy=0;" parent="lYT4x0qV3o0OyzlUkW0a-1" source="lYT4x0qV3o0OyzlUkW0a-10" target="lYT4x0qV3o0OyzlUkW0a-12" edge="1">
          <mxGeometry relative="1" as="geometry">
            <mxPoint x="790" y="460" as="targetPoint" />
          </mxGeometry>
        </mxCell>
        <mxCell id="lYT4x0qV3o0OyzlUkW0a-10" value="Notify cash office" style="whiteSpace=wrap;html=1;rounded=0;fontSize=10;" parent="lYT4x0qV3o0OyzlUkW0a-1" vertex="1">
          <mxGeometry x="580" y="430" width="120" height="60" as="geometry" />
        </mxCell>
        <mxCell id="lYT4x0qV3o0OyzlUkW0a-11" value="" style="edgeStyle=orthogonalEdgeStyle;rounded=0;orthogonalLoop=1;jettySize=auto;html=1;fontSize=10;" parent="lYT4x0qV3o0OyzlUkW0a-1" source="lYT4x0qV3o0OyzlUkW0a-8" target="lYT4x0qV3o0OyzlUkW0a-10" edge="1">
          <mxGeometry relative="1" as="geometry" />
        </mxCell>
        <mxCell id="UgP8E6Dm7-5DjdF6nIDl-1" value="Approved and signed?" style="rhombus;whiteSpace=wrap;html=1;rounded=0;fontSize=10;" vertex="1" parent="lYT4x0qV3o0OyzlUkW0a-1">
          <mxGeometry x="200" y="290" width="80" height="80" as="geometry" />
        </mxCell>
        <mxCell id="UgP8E6Dm7-5DjdF6nIDl-2" value="" style="edgeStyle=orthogonalEdgeStyle;rounded=0;orthogonalLoop=1;jettySize=auto;html=1;fontSize=10;" edge="1" parent="lYT4x0qV3o0OyzlUkW0a-1" source="lYT4x0qV3o0OyzlUkW0a-3" target="UgP8E6Dm7-5DjdF6nIDl-1">
          <mxGeometry relative="1" as="geometry" />
        </mxCell>
        <mxCell id="UgP8E6Dm7-5DjdF6nIDl-4" value="" style="edgeStyle=orthogonalEdgeStyle;rounded=0;orthogonalLoop=1;jettySize=auto;html=1;fontSize=10;entryX=0.5;entryY=0;entryDx=0;entryDy=0;" edge="1" parent="lYT4x0qV3o0OyzlUkW0a-1" source="UgP8E6Dm7-5DjdF6nIDl-1" target="lYT4x0qV3o0OyzlUkW0a-6">
          <mxGeometry relative="1" as="geometry">
            <mxPoint x="240" y="450" as="targetPoint" />
          </mxGeometry>
        </mxCell>
        <mxCell id="UgP8E6Dm7-5DjdF6nIDl-5" value="yes" style="text;html=1;strokeColor=none;fillColor=none;align=center;verticalAlign=middle;whiteSpace=wrap;rounded=0;fontSize=10;" vertex="1" parent="lYT4x0qV3o0OyzlUkW0a-1">
          <mxGeometry x="231" y="384" width="40" height="20" as="geometry" />
        </mxCell>
        <mxCell id="UgP8E6Dm7-5DjdF6nIDl-8" value="no" style="text;html=1;strokeColor=none;fillColor=none;align=center;verticalAlign=middle;whiteSpace=wrap;rounded=0;fontSize=10;" vertex="1" parent="lYT4x0qV3o0OyzlUkW0a-1">
          <mxGeometry x="158" y="311" width="40" height="20" as="geometry" />
        </mxCell>
        <mxCell id="UgP8E6Dm7-5DjdF6nIDl-10" value="" style="edgeStyle=orthogonalEdgeStyle;rounded=0;orthogonalLoop=1;jettySize=auto;html=1;fontSize=10;entryX=0;entryY=0.5;entryDx=0;entryDy=0;" edge="1" parent="1" source="UgP8E6Dm7-5DjdF6nIDl-6" target="lYT4x0qV3o0OyzlUkW0a-3">
          <mxGeometry relative="1" as="geometry">
            <mxPoint x="130" y="260" as="targetPoint" />
            <Array as="points">
              <mxPoint x="130" y="240" />
            </Array>
          </mxGeometry>
        </mxCell>
        <mxCell id="UgP8E6Dm7-5DjdF6nIDl-6" value="Return to Payroll for review" style="whiteSpace=wrap;html=1;rounded=0;fontSize=10;" vertex="1" parent="1">
          <mxGeometry x="70" y="330" width="120" height="60" as="geometry" />
        </mxCell>
        <mxCell id="UgP8E6Dm7-5DjdF6nIDl-7" value="" style="edgeStyle=orthogonalEdgeStyle;rounded=0;orthogonalLoop=1;jettySize=auto;html=1;fontSize=10;" edge="1" parent="1" source="UgP8E6Dm7-5DjdF6nIDl-1" target="UgP8E6Dm7-5DjdF6nIDl-6">
          <mxGeometry relative="1" as="geometry" />
        </mxCell>
      </root>
    </mxGraphModel>
  </diagram>
</mxfile>
